<svg width="256" height="256" viewBox="0 0 256 256" fill="none" xmlns="http://www.w3.org/2000/svg">
<path d="M35.6426 150.642C35.6426 154.38 36.3789 158.082 37.8096 161.536C39.2403 164.99 41.3373 168.129 43.9808 170.772C46.6244 173.416 49.7627 175.513 53.2167 176.943C56.6706 178.374 60.3725 179.11 64.1111 179.11C67.8496 179.11 71.5515 178.374 75.0055 176.943C78.4595 175.513 81.5978 173.416 84.2413 170.772C86.8849 168.129 88.9819 164.99 90.4125 161.536C91.8432 158.082 92.5796 154.38 92.5796 150.642C92.5796 143.092 89.5802 135.85 84.2413 130.512C78.9025 125.173 71.6614 122.173 64.1111 122.173C56.5608 122.173 49.3197 125.173 43.9808 130.512C38.6419 135.85 35.6426 143.092 35.6426 150.642Z" stroke="currentColor" stroke-width="10.67" stroke-linecap="round" stroke-linejoin="round"/>
<path d="M113.423 236.048C111.712 224.19 105.785 213.346 96.7283 205.503C87.6719 197.66 76.0926 193.343 64.1121 193.343C52.1316 193.343 40.5523 197.66 31.4959 205.503C22.4395 213.346 16.5124 224.19 14.8008 236.048H113.423Z" stroke="currentColor" stroke-width="10.67" stroke-linecap="round" stroke-linejoin="round"/>
<path d="M163.42 150.642C163.42 158.192 166.419 165.433 171.758 170.772C177.097 176.111 184.338 179.11 191.888 179.11C199.439 179.11 206.68 176.111 212.019 170.772C217.358 165.433 220.357 158.192 220.357 150.642C220.357 143.092 217.358 135.85 212.019 130.512C206.68 125.173 199.439 122.173 191.888 122.173C184.338 122.173 177.097 125.173 171.758 130.512C166.419 135.85 163.42 143.092 163.42 150.642Z" stroke="currentColor" stroke-width="10.67" stroke-linecap="round" stroke-linejoin="round"/>
<path d="M241.199 236.048C239.487 224.19 233.56 213.346 224.504 205.503C215.447 197.66 203.868 193.343 191.888 193.343C179.907 193.343 168.328 197.66 159.271 205.503C150.215 213.346 144.288 224.19 142.576 236.048H241.199Z" stroke="currentColor" stroke-width="10.67" stroke-linecap="round" stroke-linejoin="round"/>
<path d="M65.911 19.9526H81.2441C83.9551 19.9526 86.5552 21.0296 88.4722 22.9466C90.3892 24.8636 91.4662 27.4637 91.4662 30.1747V65.952C91.4662 68.6631 90.3892 71.2631 88.4722 73.1801C86.5552 75.0971 83.9551 76.1741 81.2441 76.1741H65.911C60.4888 76.1741 55.2888 74.0202 51.4548 70.1861C47.6207 66.3521 45.4668 61.1521 45.4668 55.7299V40.3968C45.4668 34.9747 47.6207 29.7746 51.4548 25.9406C55.2888 22.1066 60.4888 19.9526 65.911 19.9526Z" stroke="currentColor" stroke-width="10.67" stroke-linecap="round" stroke-linejoin="round"/>
<path d="M91.4668 35.2856H111.911" stroke="currentColor" stroke-width="10.67" stroke-linecap="round" stroke-linejoin="round"/>
<path d="M91.4668 60.8408H111.911" stroke="currentColor" stroke-width="10.67" stroke-linecap="round" stroke-linejoin="round"/>
<path d="M45.467 45.5078H25.0229C22.3118 45.5078 19.7118 46.5848 17.7948 48.5018C15.8777 50.4188 14.8008 53.0188 14.8008 55.7299V137.507C14.8008 140.218 15.8777 142.818 17.7948 144.735C19.7118 146.652 22.3118 147.729 25.0229 147.729H35.2449" stroke="currentColor" stroke-width="10.67" stroke-linecap="round" stroke-linejoin="round"/>
<path d="M188.576 76.1741H163.021C160.31 76.1741 157.71 75.0971 155.793 73.1801C153.876 71.2631 152.799 68.6631 152.799 65.952V30.1747C152.799 27.4637 153.876 24.8636 155.793 22.9466C157.71 21.0296 160.31 19.9526 163.021 19.9526H188.576C193.998 19.9526 199.198 22.1066 203.032 25.9406C206.866 29.7746 209.02 34.9747 209.02 40.3968V55.7299C209.02 61.1521 206.866 66.3521 203.032 70.1861C199.198 74.0202 193.998 76.1741 188.576 76.1741Z" stroke="currentColor" stroke-width="10.67" stroke-linecap="round" stroke-linejoin="round"/>
<path d="M209.02 45.5078H229.464C232.175 45.5078 234.775 46.5848 236.692 48.5018C238.609 50.4188 239.686 53.0188 239.686 55.7299V137.507C239.686 140.218 238.609 142.818 236.692 144.735C234.775 146.652 232.175 147.729 229.464 147.729H224.353" stroke="currentColor" stroke-width="10.67" stroke-linecap="round" stroke-linejoin="round"/>
<path d="M173.283 129.176C178.618 136.503 185.754 142.33 194.001 146.091C202.247 149.851 211.325 151.419 220.356 150.642" stroke="currentColor" stroke-width="10.67" stroke-linecap="round" stroke-linejoin="round"/>
<path d="M82.7255 129.176C77.3894 136.504 70.2515 142.331 62.0029 146.092C53.7544 149.852 44.6746 151.42 35.6426 150.642" stroke="currentColor" stroke-width="10.67" stroke-linecap="round" stroke-linejoin="round"/>
<path d="M170.033 38.9553H180.91" stroke="currentColor" stroke-width="10.67" stroke-linecap="round" stroke-linejoin="round"/>
<path d="M170.033 57.1714H180.91" stroke="currentColor" stroke-width="10.67" stroke-linecap="round" stroke-linejoin="round"/>
</svg>
