<svg width="256" height="256" viewBox="0 0 256 256" fill="none" xmlns="http://www.w3.org/2000/svg">
<path d="M112.063 41.6313H218.854C229.667 41.6313 238.434 50.3976 238.434 61.2113V182.458C238.434 193.272 229.667 202.039 218.854 202.039H117.588L65.8741 237.762C59.3802 242.248 50.5198 237.599 50.5198 229.707V202.039H37.1542C26.3405 202.039 17.5742 193.272 17.5742 182.458V61.2113C17.5742 50.3976 26.3405 41.6313 37.1541 41.6313H59.0938" stroke="currentColor" stroke-width="10.67" stroke-linecap="round" stroke-linejoin="round"/>
<path d="M133.172 16.4956L108.041 41.6266L133.172 66.7576" stroke="currentColor" stroke-width="10.67" stroke-linecap="round" stroke-linejoin="round"/>
<path d="M81.1965 133.64C91.8674 133.64 100.518 124.99 100.518 114.32C100.518 103.648 91.8674 94.9976 81.1965 94.9976C70.5255 94.9976 61.875 103.648 61.875 114.32C61.875 124.99 70.5255 133.64 81.1965 133.64Z" stroke="currentColor" stroke-width="10.67" stroke-miterlimit="10" stroke-linecap="round" stroke-linejoin="round"/>
<path d="M113.602 163.662C109.372 149.801 96.2704 139.41 81.2202 139.41C66.17 139.41 53.0683 149.801 48.8379 163.662" stroke="currentColor" stroke-width="10.67" stroke-miterlimit="10" stroke-linecap="round" stroke-linejoin="round"/>
<path d="M173.855 133.64C184.526 133.64 193.177 124.99 193.177 114.32C193.177 103.648 184.526 94.9976 173.855 94.9976C163.184 94.9976 154.533 103.648 154.533 114.32C154.533 124.99 163.184 133.64 173.855 133.64Z" stroke="currentColor" stroke-width="10.67" stroke-miterlimit="10" stroke-linecap="round" stroke-linejoin="round"/>
<path d="M206.261 163.662C202.03 149.801 188.929 139.41 173.879 139.41C158.829 139.41 145.727 149.801 141.496 163.662" stroke="currentColor" stroke-width="10.67" stroke-miterlimit="10" stroke-linecap="round" stroke-linejoin="round"/>
</svg>
