<svg width="256" height="256" viewBox="0 0 256 256" fill="none" xmlns="http://www.w3.org/2000/svg">
<path d="M33.6606 10.446H222.34C222.34 10.446 242.733 10.446 242.733 30.8391V56.3432C242.733 56.3432 242.733 76.7363 222.34 76.7363H33.6606C33.6606 76.7363 13.2676 76.7363 13.2676 56.3432V30.8391C13.2676 30.8391 13.2676 10.446 33.6606 10.446Z" stroke="currentColor" stroke-width="10.67" stroke-miterlimit="10" stroke-linecap="round"/>
<path d="M107.362 218.373C107.359 225.583 104.493 232.496 99.394 237.594C94.295 242.691 87.3805 245.554 80.1708 245.554H43.9233C36.8045 245.416 30.0239 242.491 25.0383 237.408C20.0526 232.324 17.2598 225.488 17.2598 218.368C17.2598 211.248 20.0526 204.412 25.0383 199.329C30.0239 194.246 36.8045 191.321 43.9233 191.183H80.1708C83.7416 191.183 87.2773 191.886 90.5763 193.252C93.8752 194.619 96.8727 196.622 99.3976 199.147C101.922 201.671 103.925 204.669 105.292 207.968C106.658 211.267 107.362 214.803 107.362 218.373Z" stroke="currentColor" stroke-width="10.67" stroke-miterlimit="10" stroke-linecap="round"/>
<path d="M43.8613 33.3945V53.7876" stroke="currentColor" stroke-width="10.67" stroke-miterlimit="10" stroke-linecap="round"/>
<path d="M33.6606 100.82H222.34C222.34 100.82 242.733 100.82 242.733 121.213V146.717C242.733 146.717 242.733 167.11 222.34 167.11H33.6606C33.6606 167.11 13.2676 167.11 13.2676 146.717V121.213C13.2676 121.213 13.2676 100.82 33.6606 100.82Z" stroke="currentColor" stroke-width="10.67" stroke-miterlimit="10" stroke-linecap="round"/>
<path d="M43.8613 123.768V144.161" stroke="currentColor" stroke-width="10.67" stroke-miterlimit="10" stroke-linecap="round"/>
<path d="M48.4629 218.373L57.5197 227.43L75.6434 209.306" stroke="currentColor" stroke-width="10.67" stroke-linecap="round" stroke-linejoin="round"/>
</svg>
