<svg width="701" height="237" viewBox="0 0 701 237" fill="none" xmlns="http://www.w3.org/2000/svg">
<path d="M149.118 165.614C149.118 174.32 142.06 181.378 133.353 181.378H30.882C22.1753 181.378 15.1172 174.32 15.1172 165.614V78.7263C15.1172 61.313 29.2334 47.1968 46.6468 47.1968H117.588C135.002 47.1968 149.118 61.313 149.118 78.7263V165.614Z" stroke="white" stroke-width="12.5153" stroke-linecap="round" stroke-linejoin="round"/>
<path d="M57.0809 141.372L46.4839 125.254C44.9532 122.926 44.8961 120.257 47.2256 118.725C49.5552 117.194 51.9827 118.304 53.5134 120.632L71.7321 148.341C74.03 151.836 72.6675 156.788 69.1739 159.085C65.6802 161.382 59.8712 161.145 57.5732 157.65L38.0203 127.912C34.957 123.253 35.9566 115.62 42.3989 111.384C47.4724 108.048 54.4858 108.716 58.8077 114.245L71.963 128.754" stroke="#9542FF" stroke-width="5.65256" stroke-linecap="round" stroke-linejoin="round"/>
<path d="M77.9233 88.7364L94.5949 77.6754C97.0782 75.9249 99.8658 77.0964 101.068 78.8026C103.341 82.0289 101.253 85.014 98.8377 86.404L70.0521 101.511C66.427 103.598 61.5652 101.945 59.4793 98.3209C57.3933 94.6972 57.9733 88.9124 61.5984 86.8256L92.4431 69.0691C97.2756 66.2873 105.229 68.4217 108.682 74.4194C112.529 81.1014 109.876 88.0459 105.589 91.158L88.3673 103.831" stroke="#9542FF" stroke-width="5.65256" stroke-linecap="round" stroke-linejoin="round"/>
<path d="M109.616 127.507L100.404 145.267C98.9298 147.924 100.393 150.57 102.218 151.582C105.669 153.497 108.414 151.1 109.537 148.551L121.475 118.313C123.161 114.485 120.997 109.828 117.17 108.142C113.344 106.456 107.655 107.653 105.968 111.48L91.6171 144.049C89.3688 149.152 92.3427 156.831 98.6757 159.622C105.731 162.732 112.352 159.349 114.987 154.754L125.742 136.274" stroke="#9542FF" stroke-width="5.65256" stroke-linecap="round" stroke-linejoin="round"/>
<path d="M128.552 44.3384L35.0361 44.3384" stroke="white" stroke-width="14.1314" stroke-linecap="round"/>
<path d="M128.552 26.1899L35.0361 26.1899" stroke="white" stroke-width="11.3051" stroke-linecap="round"/>
<path d="M263.267 184.035C257.446 184.035 252.293 183.209 247.809 181.557C243.404 179.827 239.668 177.428 236.6 174.36C233.611 171.213 231.33 167.437 229.756 163.032C228.183 158.627 227.396 153.711 227.396 148.283V26.2797C227.396 25.1706 228.296 24.2715 229.405 24.2715H261.966C263.076 24.2715 263.975 25.1706 263.975 26.2797V56.0072C263.975 57.1163 264.874 58.0154 265.983 58.0154H292.291C293.4 58.0154 294.299 58.9145 294.299 60.0236V89.0547C294.299 90.1638 293.4 91.0629 292.291 91.0629H265.983C264.874 91.0629 263.975 91.962 263.975 93.0711V145.805C263.975 148.637 264.643 150.997 265.98 152.885C267.396 154.694 269.402 155.599 271.998 155.599C273.335 155.599 274.437 155.481 275.302 155.245C276.246 154.93 277.033 154.615 277.662 154.301C278.37 153.907 278.999 153.593 279.55 153.357C280.179 153.042 280.887 152.885 281.674 152.885C282.775 152.885 283.64 153.16 284.27 153.711C284.978 154.183 285.685 154.969 286.393 156.071L296.481 171.846C297.047 172.731 296.837 173.907 295.973 174.506C291.64 177.51 286.834 179.821 281.556 181.439C275.656 183.17 269.56 184.035 263.267 184.035Z" fill="white"/>
<path d="M377.204 134.45C377.204 133.307 376.251 132.394 375.109 132.454C368.731 132.794 363.412 133.39 359.15 134.242C354.431 135.186 350.694 136.366 347.941 137.782C345.188 139.198 343.261 140.81 342.159 142.619C341.137 144.429 340.625 146.395 340.625 148.519C340.625 152.688 341.766 155.638 344.047 157.369C346.328 159.021 349.672 159.847 354.077 159.847C358.796 159.847 362.926 159.021 366.466 157.369C369.817 155.805 373.204 153.324 376.626 149.927C376.999 149.557 377.204 149.051 377.204 148.526V134.45ZM313.005 79.6235C312.05 77.9685 312.386 75.8603 313.869 74.6552C320.594 69.1906 327.939 65.0607 335.906 62.2655C344.952 59.0403 354.627 57.4278 364.932 57.4278C372.326 57.4278 378.973 58.647 384.873 61.0856C390.851 63.4455 395.886 66.7886 399.976 71.1151C404.145 75.3628 407.331 80.4366 409.534 86.3363C411.736 92.236 412.838 98.6863 412.838 105.687V180.139C412.838 181.248 411.939 182.147 410.829 182.147H396.083C392.621 182.147 389.986 181.675 388.177 180.731C386.446 179.787 384.991 177.821 383.811 174.832L382.232 170.739C381.734 169.451 380.115 169.037 379.043 169.908C376.749 171.771 374.523 173.452 372.366 174.95C369.534 176.916 366.584 178.608 363.516 180.023C360.527 181.361 357.302 182.344 353.841 182.973C350.458 183.681 346.682 184.035 342.513 184.035C336.928 184.035 331.855 183.327 327.292 181.911C322.73 180.417 318.836 178.254 315.611 175.422C312.464 172.59 310.026 169.089 308.295 164.92C306.565 160.672 305.699 155.795 305.699 150.289C305.699 145.884 306.801 141.439 309.003 136.956C311.206 132.393 315.021 128.263 320.448 124.566C325.876 120.791 333.192 117.644 342.395 115.127C351.165 112.728 362.113 111.33 375.239 110.931C376.33 110.898 377.204 110.007 377.204 108.915V105.687C377.204 98.529 375.709 93.3766 372.72 90.2301C369.809 87.0049 365.64 85.3923 360.212 85.3923C355.886 85.3923 352.346 85.8643 349.593 86.8082C346.84 87.7522 344.362 88.8142 342.159 89.9941C340.035 91.174 337.951 92.236 335.906 93.1799C333.86 94.1239 331.422 94.5959 328.59 94.5959C326.073 94.5959 323.949 93.9666 322.218 92.708C320.488 91.4493 319.072 89.9548 317.971 88.2242L313.005 79.6235Z" fill="white"/>
<path d="M549.311 179.065C550.157 180.403 549.196 182.147 547.614 182.147H516.098C513.503 182.147 511.379 181.518 509.727 180.259C508.154 179.001 506.895 177.506 505.951 175.776L486.152 141.743C485.385 140.424 483.351 140.648 482.706 142.029C482.156 143.209 481.566 144.311 480.936 145.333L463.001 175.776C461.9 177.349 460.602 178.804 459.107 180.141C457.613 181.479 455.686 182.147 453.326 182.147H424.458C422.865 182.147 421.906 180.382 422.773 179.046L461.102 120.011C461.538 119.338 461.533 118.47 461.088 117.803L424.493 62.9098C423.603 61.5752 424.56 59.7876 426.164 59.7876H457.574C460.169 59.7876 462.057 60.1416 463.237 60.8496C464.496 61.4789 465.597 62.5802 466.541 64.1534L486.122 96.6473C487.007 98.1152 489.279 97.8931 490.073 96.3743C490.095 96.3321 490.118 96.2899 490.14 96.2478C490.848 94.8319 491.634 93.4159 492.5 92L508.075 64.7434C509.176 63.0128 510.317 61.7542 511.497 60.9676C512.755 60.181 514.289 59.7876 516.098 59.7876H545.796C547.412 59.7876 548.366 61.599 547.453 62.9317L510.947 116.159C510.493 116.822 510.477 117.69 510.906 118.369L549.311 179.065Z" fill="white"/>
<path d="M683.798 59.7876C685.237 59.7876 686.209 61.2557 685.647 62.58L621.463 213.888C620.362 216.326 619.025 218.096 617.451 219.197C615.878 220.377 613.361 220.967 609.9 220.967H585.706C584.23 220.967 583.258 219.428 583.893 218.096L605.73 172.238C605.98 171.712 605.99 171.103 605.756 170.57L558.506 62.6009C557.925 61.2741 558.897 59.7876 560.345 59.7876H589.605C592.437 59.7876 594.6 60.4169 596.094 61.6755C597.668 62.9341 598.808 64.4287 599.516 66.1593L619.575 118.903C620.449 121.125 621.501 124.451 622.378 127.383C622.944 129.278 625.668 129.359 626.323 127.493C627.566 123.953 628.946 120.064 629.487 118.667L647.658 66.1593C648.366 64.35 649.624 62.8554 651.434 61.6755C653.243 60.4169 655.209 59.7876 657.333 59.7876H683.798Z" fill="#9542FF"/>
<circle cx="198.852" cy="74.5767" r="18.8477" fill="#9542FF"/>
</svg>
